<?xml version="1.0" standalone="no"?>
<!DOCTYPE svg PUBLIC "-//W3C//DTD SVG 20010904//EN"
 "http://www.w3.org/TR/2001/REC-SVG-20010904/DTD/svg10.dtd">
<svg version="1.0" xmlns="http://www.w3.org/2000/svg"
 width="1408.000000pt" height="768.000000pt" viewBox="0 0 1408.000000 768.000000"
 preserveAspectRatio="xMidYMid meet">

<g transform="translate(0.000000,768.000000) scale(0.100000,-0.100000)"
fill="#000000" stroke="none">
<path d="M7621 5654 c0 -11 3 -14 6 -6 3 7 2 16 -1 19 -3 4 -6 -2 -5 -13z"/>
<path d="M7646 5510 c8 -33 50 -109 76 -140 l20 -25 -18 30 c-11 17 -34 59
-52 95 -18 36 -30 54 -26 40z"/>
<path d="M6265 5256 c-200 -48 -340 -212 -361 -420 -10 -109 33 -253 100 -334
15 -16 26 -33 26 -37 0 -9 -238 -394 -255 -413 -10 -11 -24 -10 -80 7 -206 64
-427 -17 -546 -201 -53 -83 -73 -166 -67 -280 4 -80 10 -104 41 -171 41 -89
121 -176 203 -219 289 -155 639 19 694 344 20 119 -14 261 -86 355 -14 19 -24
37 -22 41 2 5 63 105 135 223 l133 216 60 -20 60 -20 171 -301 c245 -430 258
-453 299 -505 71 -90 211 -141 328 -120 138 26 206 92 342 335 52 93 121 216
153 274 115 203 254 455 266 480 24 49 -18 -11 -49 -70 -16 -30 -35 -64 -43
-74 -13 -18 -14 -18 -13 11 0 17 3 30 5 28 6 -6 27 18 34 40 6 18 5 18 -12 -2
-22 -27 -31 -29 -31 -8 0 15 -10 19 -42 16 -10 -1 -18 4 -18 13 0 8 -5 16 -12
18 -8 3 -1 24 20 63 18 32 30 60 28 62 -2 2 -103 -173 -226 -389 -332 -584
-325 -573 -366 -598 -87 -55 -188 -30 -248 62 -33 51 -386 666 -386 673 0 6
151 77 155 73 2 -2 40 -66 85 -143 104 -179 116 -194 181 -230 102 -55 245
-29 311 57 23 30 124 205 423 733 59 105 110 193 112 198 2 4 2 7 0 7 -3 0
-43 -63 -89 -140 -45 -77 -84 -135 -86 -130 -2 5 4 20 13 33 11 18 13 27 5 32
-6 4 -9 13 -6 21 3 8 0 11 -8 8 -10 -4 -12 3 -10 23 2 15 1 22 -2 16 -3 -7
-12 -13 -20 -13 -8 0 -14 -5 -14 -10 0 -7 -7 -7 -21 0 -20 11 -19 12 14 73 19
34 49 89 67 122 18 33 44 77 57 98 14 22 22 41 20 43 -4 5 -41 -58 -356 -606
-103 -179 -199 -344 -214 -367 -28 -45 -59 -60 -101 -49 -30 7 -39 20 -153
212 -84 141 -89 153 -77 175 8 13 23 55 35 93 18 56 21 85 17 161 -4 81 -10
104 -41 169 -98 206 -318 314 -532 262z m208 -172 c57 -19 141 -92 169 -148
15 -29 23 -66 26 -124 4 -77 2 -87 -27 -147 -134 -271 -542 -186 -559 117 -7
110 33 198 116 259 80 58 183 75 275 43z m1193 -651 c-10 -10 -19 5 -10 18 6
11 8 11 12 0 2 -7 1 -15 -2 -18z m-1979 -559 c166 -81 217 -324 94 -453 -20
-21 -31 -30 -25 -22 26 38 27 43 7 37 -12 -4 -25 -1 -33 9 -9 11 -17 12 -34 3
l-21 -11 22 24 c50 55 68 154 40 222 -19 45 -88 104 -138 117 -81 22 -178 -18
-224 -93 -16 -25 -24 -32 -20 -18 6 19 4 23 -9 18 -11 -5 -18 1 -22 19 -4 16
-12 23 -20 20 -23 -9 8 43 48 80 91 86 221 104 335 48z"/>
<path d="M6285 4975 c-72 -36 -126 -141 -109 -213 41 -175 262 -220 355 -74
16 25 29 57 28 71 0 23 -1 24 -8 6 -5 -11 -7 -23 -4 -27 2 -5 -1 -8 -6 -8 -6
0 -11 11 -11 25 0 18 -5 25 -20 25 -11 0 -20 5 -20 10 0 6 -11 23 -25 38 -14
15 -23 33 -20 40 3 7 0 10 -5 7 -6 -3 -10 2 -10 12 0 11 -6 25 -12 32 -8 9 -9
12 -1 7 7 -4 9 1 6 14 -3 11 -9 17 -14 14 -5 -3 -9 2 -9 11 0 14 6 16 28 11
20 -5 23 -4 12 4 -23 15 -121 12 -155 -5z"/>
<path d="M7861 5203 c-10 -26 -10 -27 4 -9 8 11 15 23 15 28 0 15 -7 8 -19
-19z"/>
<path d="M8073 5193 c9 -2 23 -2 30 0 6 3 -1 5 -18 5 -16 0 -22 -2 -12 -5z"/>
<path d="M7828 5148 c-22 -34 -62 -115 -51 -103 14 14 76 125 70 125 -3 0 -11
-10 -19 -22z"/>
<path d="M7586 4984 c-9 -24 -2 -26 12 -4 7 11 8 20 3 20 -5 0 -12 -7 -15 -16z"/>
<path d="M7615 4853 c0 -12 3 -23 8 -23 4 0 7 6 7 14 0 8 6 16 12 18 7 3 4 7
-7 10 -16 4 -20 0 -20 -19z"/>
<path d="M7768 4663 c-15 -18 -46 -73 -35 -63 9 8 57 80 53 80 -1 0 -10 -8
-18 -17z"/>
<path d="M7881 4543 c-10 -26 -10 -27 4 -9 8 11 15 23 15 28 0 15 -7 8 -19
-19z"/>
<path d="M8489 4533 c-13 -16 -12 -17 4 -4 9 7 17 15 17 17 0 8 -8 3 -21 -13z"/>
<path d="M8439 4493 l-24 -28 28 24 c15 14 27 26 27 28 0 8 -8 1 -31 -24z"/>
<path d="M7700 4485 c0 -8 4 -15 10 -15 5 0 7 7 4 15 -4 8 -8 15 -10 15 -2 0
-4 -7 -4 -15z"/>
<path d="M8374 4438 l-29 -33 33 29 c17 17 32 31 32 33 0 8 -8 1 -36 -29z"/>
<path d="M8584 4408 l-19 -23 23 19 c12 11 22 21 22 23 0 8 -8 2 -26 -19z"/>
<path d="M8279 4362 c-31 -26 -130 -109 -221 -184 -225 -186 -266 -254 -256
-428 8 -142 87 -258 216 -318 49 -23 70 -27 152 -27 88 0 101 3 162 33 149 73
230 224 214 399 -6 68 -50 262 -65 290 -4 8 -20 1 -51 -23 -25 -20 -56 -44
-68 -55 l-24 -18 21 -89 c35 -151 26 -235 -35 -302 -96 -106 -264 -86 -332 40
-34 64 -28 157 13 218 17 25 135 132 292 263 144 120 263 222 263 224 0 5
-169 -126 -210 -162 -14 -13 -29 -23 -34 -23 -5 0 1 9 14 20 18 16 20 23 11
34 -9 11 -9 16 0 22 8 4 9 3 5 -4 -9 -15 14 -15 34 -1 13 9 12 10 -2 5 -10 -3
-20 -1 -22 3 -3 5 -16 6 -28 4 -13 -2 -34 1 -48 7 l-25 10 28 -5 c29 -6 38 10
10 17 -27 7 -43 -2 -43 -23 0 -12 -5 -16 -15 -13 -8 4 -22 1 -30 -6 -9 -7 -18
-10 -21 -7 -3 3 3 10 14 16 21 11 151 131 142 130 -3 0 -30 -21 -61 -47z m224
-357 c31 -122 39 -199 28 -245 l-9 -35 -1 32 c-1 43 -12 68 -21 53 -4 -7 -11
16 -15 51 -9 92 -13 103 -31 88 -12 -10 -16 -8 -21 10 -4 17 -8 19 -14 9 -7
-10 -9 -10 -9 3 0 23 11 30 27 18 9 -9 13 -8 13 0 0 6 -4 11 -10 11 -5 0 -10
8 -10 18 0 14 -4 12 -20 -8 l-20 -25 0 23 c0 12 -4 22 -10 22 -9 0 -7 -39 5
-82 5 -20 5 -21 -5 -5 -22 35 -30 78 -17 91 49 46 102 85 108 79 4 -5 19 -53
32 -108z"/>
<path d="M8503 3851 c0 -11 5 -18 9 -15 4 3 5 11 1 19 -7 21 -12 19 -10 -4z"/>
<path d="M7991 4364 c0 -11 3 -14 6 -6 3 7 2 16 -1 19 -3 4 -6 -2 -5 -13z"/>
<path d="M8045 4340 c-26 -27 -30 -29 -37 -13 -6 15 -7 15 -7 -4 -1 -32 9 -29
49 12 19 19 32 35 29 35 -3 0 -18 -14 -34 -30z"/>
<path d="M4302 2353 l3 -378 53 -3 52 -3 0 271 c0 149 3 269 8 266 4 -2 66
-101 137 -220 l130 -216 35 2 c34 3 38 7 165 221 l130 217 3 -270 2 -270 55 0
55 0 0 380 0 380 -48 0 -48 0 -156 -260 -157 -259 -127 207 c-69 114 -141 230
-158 259 l-31 52 -53 1 -52 0 2 -377z"/>
<path d="M5345 2718 c-3 -7 -4 -177 -2 -378 l2 -365 283 -3 282 -2 0 50 0 50
-225 0 -225 0 0 120 0 120 195 0 195 0 0 50 0 50 -195 0 -195 0 0 110 0 110
218 2 217 3 3 48 3 47 -276 0 c-211 0 -277 -3 -280 -12z"/>
<path d="M6072 2353 l3 -378 55 0 55 0 3 118 3 117 114 0 114 0 83 -120 83
-120 64 0 63 0 -18 28 c-9 15 -48 71 -86 125 -37 54 -68 101 -68 105 0 4 22
21 49 39 68 45 101 112 101 208 0 88 -26 144 -89 192 -70 54 -120 63 -338 63
l-193 0 2 -377z m434 251 c72 -53 91 -128 52 -204 -37 -73 -83 -90 -240 -90
l-128 0 0 161 0 161 144 -4 c127 -3 148 -5 172 -24z"/>
<path d="M6862 2353 l3 -378 52 -3 53 -3 2 273 3 273 46 -75 c25 -41 86 -141
135 -222 75 -123 93 -147 116 -150 15 -3 32 0 38 6 6 6 68 106 138 223 l127
213 3 -270 2 -270 55 0 55 0 0 380 0 380 -49 0 -49 0 -155 -261 -156 -262 -18
32 c-10 17 -81 133 -158 259 l-140 227 -53 3 -52 3 2 -378z"/>
<path d="M7976 2366 c-91 -201 -169 -372 -172 -381 -6 -14 2 -16 55 -13 l62 3
38 90 39 90 205 3 204 2 43 -95 44 -95 58 0 c32 0 58 4 58 8 0 7 -222 494
-312 685 l-32 67 -62 0 -61 0 -167 -364z m302 84 c38 -85 72 -164 76 -175 6
-20 2 -20 -147 -17 -83 2 -153 5 -155 7 -2 1 25 65 59 141 34 77 68 154 76
173 8 18 16 31 18 29 2 -2 35 -73 73 -158z"/>
<path d="M8720 2350 l0 -381 58 3 57 3 3 378 2 377 -60 0 -60 0 0 -380z"/>
<path d="M9050 2349 l0 -381 213 4 c236 5 283 15 372 79 206 148 188 502 -33
622 -87 47 -148 57 -359 57 l-193 0 0 -381z m426 266 c61 -18 127 -73 156
-129 30 -58 36 -167 13 -236 -21 -63 -77 -123 -144 -153 -38 -18 -71 -22 -193
-25 l-148 -4 0 281 0 281 133 0 c89 0 150 -5 183 -15z"/>
<path d="M4397 1702 c12 -8 43 -73 43 -91 0 -5 -10 -12 -22 -14 -15 -3 -12 -3
5 -2 22 1 31 -4 38 -23 5 -14 12 -23 14 -20 9 9 -64 158 -77 158 -10 0 -10 -2
-1 -8z"/>
<path d="M4522 1655 c-2 -76 15 -105 63 -105 52 0 65 20 63 98 l-2 67 -3 -65
c-5 -76 -14 -90 -59 -90 -42 0 -48 10 -55 90 l-6 65 -1 -60z"/>
<path d="M4717 1703 l32 -4 4 -77 3 -77 2 77 2 77 33 4 c17 2 1 4 -38 4 -38 0
-56 -2 -38 -4z"/>
<path d="M4882 1703 c-15 -6 -46 -63 -38 -70 3 -3 9 3 12 13 14 38 36 54 75
54 43 0 69 -27 69 -70 0 -83 -114 -99 -143 -20 -4 12 -6 11 -6 -2 -3 -57 100
-80 138 -32 44 56 10 135 -57 133 -20 0 -43 -3 -50 -6z"/>
<path d="M5062 1628 l2 -83 5 70 c7 78 2 79 58 -14 12 -20 23 -29 27 -22 4 6
3 11 -3 11 -5 0 -24 27 -43 60 -18 33 -36 60 -40 60 -5 0 -7 -37 -6 -82z"/>
<path d="M5210 1695 c-8 -10 -9 -15 -2 -15 7 0 13 -28 15 -67 l3 -68 2 83 c1
45 0 82 -2 82 -2 0 -9 -7 -16 -15z"/>
<path d="M5327 1675 c-24 -51 -20 -58 5 -10 l21 40 38 -80 c21 -44 38 -77 38
-73 2 14 -68 158 -77 158 -4 0 -16 -16 -25 -35z"/>
<path d="M5467 1703 l32 -4 4 -77 3 -77 2 77 2 77 33 4 c17 2 1 4 -38 4 -38 0
-56 -2 -38 -4z"/>
<path d="M5702 1690 c-31 -29 -30 -89 1 -118 54 -51 137 -13 137 61 0 37 -27
77 -51 77 -7 0 0 -9 15 -21 20 -16 26 -29 26 -58 0 -46 -24 -71 -68 -71 -43 0
-72 31 -72 75 0 29 6 39 33 55 17 11 25 20 16 20 -8 0 -25 -9 -37 -20z"/>
<path d="M5891 1673 c1 -37 2 -37 8 -8 l6 30 55 -72 c30 -40 58 -72 63 -73 4
0 6 37 5 83 l-2 82 -5 -73 -6 -73 -53 71 c-30 38 -58 70 -63 70 -5 0 -8 -17
-8 -37z"/>
<path d="M6175 1699 c-4 -6 -5 -12 -2 -15 2 -3 7 2 10 11 7 17 1 20 -8 4z"/>
<path d="M6225 1700 c3 -5 8 -10 11 -10 2 0 4 5 4 10 0 6 -5 10 -11 10 -5 0
-7 -4 -4 -10z"/>
<path d="M6400 1630 l0 -80 44 0 c77 0 123 59 92 119 -18 34 -33 41 -92 41
l-44 0 0 -80z m114 51 c10 -10 18 -34 18 -52 1 -42 -31 -69 -83 -69 l-39 0 0
70 0 70 43 0 c30 0 49 -6 61 -19z"/>
<path d="M6603 1630 c0 -47 2 -66 4 -42 2 23 2 61 0 85 -2 23 -4 4 -4 -43z"/>
<path d="M6705 1678 c-7 -18 -23 -55 -34 -81 -11 -26 -17 -46 -12 -42 5 3 22
37 37 75 29 74 38 83 49 49 4 -11 9 -18 12 -16 7 8 -16 47 -28 47 -5 0 -16
-15 -24 -32z"/>
<path d="M6862 1690 c-51 -47 -14 -140 55 -140 52 0 63 9 62 49 l-2 36 -6 -35
c-5 -32 -9 -35 -43 -38 -69 -6 -105 71 -57 119 17 17 30 20 67 16 27 -3 39 -1
31 4 -26 16 -84 10 -107 -11z"/>
<path d="M7042 1628 l2 -83 3 78 4 77 38 0 c22 0 44 -6 51 -15 16 -20 5 -62
-20 -70 -19 -6 -19 -6 1 -26 10 -10 19 -23 19 -29 0 -5 5 -10 10 -10 6 0 3 11
-6 25 -15 24 -15 27 0 44 19 21 21 62 4 79 -7 7 -34 12 -60 12 l-48 0 2 -82z"/>
<path d="M7256 1694 c-10 -26 -7 -29 8 -8 14 18 15 18 25 -9 24 -63 54 -127
57 -124 2 2 -10 38 -28 80 -31 75 -50 93 -62 61z"/>
<path d="M7400 1693 c0 -11 7 -20 15 -20 12 0 12 3 3 16 -7 9 -14 18 -15 20
-2 2 -3 -5 -3 -16z"/>
<path d="M7550 1695 c-8 -10 -9 -15 -2 -15 7 0 13 -28 15 -67 l3 -68 2 83 c1
45 0 82 -2 82 -2 0 -9 -7 -16 -15z"/>
<path d="M7632 1628 l2 -83 5 70 6 70 23 -37 c34 -55 38 -47 6 12 -15 28 -31
50 -36 50 -4 0 -7 -37 -6 -82z"/>
<path d="M7778 1688 c-23 -36 -39 -68 -34 -68 3 0 13 15 23 33 l18 32 6 -70 5
-70 2 83 c1 45 0 82 -2 82 -2 0 -10 -10 -18 -22z"/>
<path d="M7873 1630 c0 -47 2 -66 4 -42 2 23 2 61 0 85 -2 23 -4 4 -4 -43z"/>
<path d="M7942 1628 l2 -83 5 75 6 75 55 -72 c30 -40 58 -72 63 -73 4 0 6 37
5 83 l-2 82 -5 -74 -6 -74 -53 71 c-29 40 -58 72 -63 72 -5 0 -8 -37 -7 -82z"/>
<path d="M8152 1690 c-51 -47 -14 -140 55 -140 52 0 63 9 62 49 l-2 36 -6 -35
c-5 -32 -9 -35 -43 -38 -69 -6 -105 71 -57 119 17 17 30 20 67 16 27 -3 39 -1
31 4 -26 16 -84 10 -107 -11z"/>
<path d="M8402 1628 l2 -83 3 78 4 77 37 0 c59 0 82 -39 45 -76 -12 -12 -13
-16 -4 -13 26 9 36 36 25 66 -8 25 -15 28 -62 31 l-52 3 2 -83z"/>
<path d="M8572 1633 l-2 -83 53 2 52 2 -47 3 -47 4 -4 77 -3 77 -2 -82z"/>
<path d="M8765 1700 c-3 -5 0 -10 7 -10 7 0 26 -32 42 -70 15 -39 32 -70 36
-70 5 0 -8 36 -28 80 -36 79 -45 90 -57 70z"/>
<path d="M8873 1704 c7 -7 107 -7 115 0 3 3 -23 6 -58 6 -35 0 -61 -3 -57 -6z"/>
<path d="M9042 1628 c1 -46 3 -66 5 -46 4 35 6 37 46 41 l42 4 -42 1 c-42 2
-43 3 -43 36 0 34 1 35 48 39 l47 3 -52 2 -53 2 2 -82z"/>
<path d="M9202 1687 c-50 -53 -13 -137 59 -137 47 0 79 34 79 83 0 39 -30 78
-59 76 -14 0 -14 -1 -1 -6 33 -12 50 -37 50 -73 0 -45 -24 -70 -68 -70 -86 0
-100 123 -17 143 19 5 19 5 -1 6 -11 0 -30 -9 -42 -22z"/>
<path d="M9390 1630 c0 -44 4 -80 9 -80 4 0 6 11 3 25 -2 15 0 25 7 25 9 0 9
5 1 20 -6 12 -10 33 -8 48 3 23 8 27 41 30 21 2 45 -2 53 -9 31 -26 5 -72 -46
-82 -22 -4 -22 -4 -3 -6 12 0 30 -12 41 -26 11 -14 23 -25 28 -25 4 0 -3 11
-15 24 l-23 24 21 21 c46 46 16 91 -60 91 l-49 0 0 -80z"/>
<path d="M9572 1628 l2 -83 3 73 c2 42 8 70 13 67 6 -3 7 1 4 9 -15 38 -24 10
-22 -66z"/>
<path d="M9719 1689 c-7 -14 -7 -19 0 -15 6 4 11 -17 14 -61 l3 -68 2 83 c1
45 0 82 -3 82 -2 0 -9 -10 -16 -21z"/>
<path d="M8724 1615 c-17 -36 -28 -65 -24 -65 7 0 62 121 57 126 -2 2 -17 -26
-33 -61z"/>
<path d="M4347 1608 c-15 -37 -19 -53 -9 -39 17 25 44 93 38 98 -1 2 -15 -25
-29 -59z"/>
<path d="M6174 1654 c4 -14 1 -26 -9 -34 -20 -16 -19 -56 1 -64 25 -10 29 -7
10 7 -21 16 -18 45 6 60 13 9 21 6 37 -14 11 -13 20 -19 20 -14 0 12 -26 43
-53 65 -17 14 -18 13 -12 -6z"/>
<path d="M7221 1609 c-12 -29 -19 -54 -17 -56 2 -3 7 5 11 16 3 12 14 21 23
21 13 0 14 2 3 9 -10 7 -11 13 -1 31 6 12 10 24 7 26 -2 3 -14 -19 -26 -47z"/>
<path d="M7445 1630 c9 -16 18 -30 21 -30 2 0 -2 14 -11 30 -9 17 -18 30 -21
30 -2 0 2 -13 11 -30z"/>
<path d="M9690 1640 c-6 -11 -8 -20 -6 -20 3 0 10 9 16 20 6 11 8 20 6 20 -3
0 -10 -9 -16 -20z"/>
<path d="M6766 1630 c8 -30 33 -80 39 -80 6 0 -19 62 -35 87 -9 15 -10 14 -4
-7z"/>
<path d="M7403 1600 c0 -30 2 -43 4 -27 2 15 2 39 0 55 -2 15 -4 2 -4 -28z"/>
<path d="M7505 1621 c-8 -16 -20 -31 -27 -33 -8 -3 -8 -7 -2 -11 6 -3 21 12
33 33 12 22 20 40 17 40 -3 0 -12 -13 -21 -29z"/>
<path d="M9631 1613 c12 -23 26 -40 30 -37 5 2 1 13 -9 23 -9 10 -23 26 -30
37 -7 10 -3 0 9 -23z"/>
<path d="M5165 1619 c-4 -6 -5 -12 -2 -15 2 -3 7 2 10 11 7 17 1 20 -8 4z"/>
<path d="M5296 1604 c-4 -9 -4 -19 -1 -22 2 -3 7 3 11 12 4 9 4 19 1 22 -2 3
-7 -3 -11 -12z"/>
<path d="M8438 1603 c6 -2 18 -2 25 0 6 3 1 5 -13 5 -14 0 -19 -2 -12 -5z"/>
<path d="M6255 1589 c-4 -6 -5 -12 -2 -15 2 -3 7 2 10 11 7 17 1 20 -8 4z"/>
<path d="M7268 1593 c7 -3 16 -2 19 1 4 3 -2 6 -13 5 -11 0 -14 -3 -6 -6z"/>
<path d="M7707 1585 c3 -8 9 -12 14 -9 12 7 11 11 -5 17 -10 4 -13 1 -9 -8z"/>
<path d="M8920 1566 c0 -9 5 -16 10 -16 6 0 10 4 10 9 0 6 -4 13 -10 16 -5 3
-10 -1 -10 -9z"/>
<path d="M6208 1553 c7 -3 16 -2 19 1 4 3 -2 6 -13 5 -11 0 -14 -3 -6 -6z"/>
</g>
</svg>
